<?xml version="1.0" encoding="utf-8"?>
<!-- Generator: Adobe Illustrator 12.0.0, SVG Export Plug-In . SVG Version: 6.00 Build 51448)  -->
<!DOCTYPE svg PUBLIC "-//W3C//DTD SVG 1.1//EN" "http://www.w3.org/Graphics/SVG/1.1/DTD/svg11.dtd" [
	<!ENTITY ns_svg "http://www.w3.org/2000/svg">
	<!ENTITY ns_xlink "http://www.w3.org/1999/xlink">
]>
<svg  version="1.1" id="Ebene_1" xmlns="&ns_svg;" xmlns:xlink="&ns_xlink;" width="175.615" height="66.899"
	 viewBox="0 0 175.615 66.899" overflow="visible" enable-background="new 0 0 175.615 66.899" xml:space="preserve">
<g id="Layer_1">
	<g>
		<line fill="none" stroke="#010101" x1="57.026" y1="0.414" x2="57.026" y2="66.523"/>
		<path fill="none" stroke="#010101" d="M95.426,0.771c0.805-0.056,1.615-0.084,2.433-0.084c18.613,0,33.703,14.709,33.703,32.855
			c0,18.147-15.09,32.857-33.703,32.857c-0.986,0-1.964-0.042-2.931-0.122"/>
		<line fill="none" stroke="#010101" x1="97.675" y1="0.769" x2="56.957" y2="0.769"/>
		<line fill="none" stroke="#010101" x1="94.928" y1="66.278" x2="56.732" y2="66.278"/>
	</g>
	<line fill="none" stroke="#010101" x1="57.125" y1="12.61" x2="12.625" y2="12.61"/>
	<line fill="none" stroke="#010101" x1="57.125" y1="52.61" x2="12.625" y2="52.61"/>
	<g enable-background="new    ">
		<path fill="#010101" d="M6.3,10.11L4.995,7.875C4.47,7.021,4.155,6.465,3.84,5.88H3.81C3.525,6.465,3.225,7.005,2.715,7.891
			L1.5,10.11H0l3.09-5.115L0.12,0h1.515L2.97,2.37C3.345,3.03,3.63,3.54,3.9,4.08h0.045c0.285-0.6,0.54-1.064,0.915-1.71L6.225,0
			H7.74L4.665,4.92l3.15,5.19H6.3z"/>
	</g>
	<g enable-background="new    ">
		<path fill="#010101" d="M5.015,64.61v-4.29l-3.21-5.82h1.5l1.425,2.79c0.375,0.766,0.69,1.38,1.005,2.085h0.03
			c0.27-0.66,0.63-1.319,1.02-2.085L8.24,54.5h1.47l-3.375,5.806v4.305H5.015z"/>
	</g>
	<line fill="none" stroke="#010101" x1="131.625" y1="31.11" x2="161.125" y2="31.11"/>
	<g enable-background="new    ">
		<path fill="#010101" d="M139.075,12.846l5.61-8.205V4.596h-5.13V3.5h6.824v0.795l-5.58,8.176v0.045h5.656v1.095h-7.381V12.846z"/>
		<path fill="#010101" d="M147.52,8.556v-0.9h7.74v0.9H147.52z M147.52,11.495v-0.899h7.74v0.899H147.52z"/>
		<path fill="#010101" d="M162.535,13.61l-1.305-2.235c-0.524-0.854-0.841-1.41-1.155-1.995h-0.029
			c-0.285,0.585-0.586,1.125-1.096,2.011l-1.215,2.22h-1.5l3.09-5.115l-2.97-4.995h1.515l1.336,2.37
			c0.375,0.66,0.659,1.17,0.93,1.71h0.045c0.285-0.6,0.539-1.064,0.914-1.71l1.365-2.37h1.516L160.9,8.42l3.149,5.19H162.535z"/>
		<path fill="#010101" d="M166.075,13.775c-0.51,0-0.87-0.405-0.87-0.945s0.375-0.944,0.9-0.944c0.524,0,0.885,0.39,0.885,0.944
			c0,0.54-0.36,0.945-0.899,0.945H166.075z"/>
		<path fill="#010101" d="M170.92,13.61V9.32l-3.211-5.82h1.5l1.426,2.79c0.375,0.766,0.689,1.38,1.004,2.085h0.031
			c0.27-0.66,0.629-1.319,1.02-2.085l1.455-2.79h1.47l-3.375,5.806v4.305H170.92z"/>
	</g>
</g>
<g id="Layer_2">
</g>
</svg>
